<?xml version="1.0" encoding="UTF-8"?>
<svg width="1024px" height="1024px" viewBox="0 0 1024 1024" xmlns="http://www.w3.org/2000/svg" xmlns:xlink="http://www.w3.org/1999/xlink" version="1.1">
 <!-- Generated by Pixelmator Pro 1.6.3 -->
 <path id="Ellipse" d="M976 533 C976 261.828 768.036 42 511.5 42 254.964 42 47 261.828 47 533 47 804.172 254.964 1024 511.5 1024 768.036 1024 976 804.172 976 533 Z" fill="#ffffff" fill-opacity="1" stroke="none"/>
 <path id="Path" d="M512 0 C229.12 0 0 229.12 0 512 0 738.56 146.56 929.92 350.08 997.76 375.68 1002.24 385.28 986.88 385.28 973.44 385.28 961.28 384.64 920.96 384.64 878.08 256 901.76 222.72 846.72 212.48 817.92 206.72 803.2 181.76 757.76 160 745.6 142.08 736 116.48 712.32 159.36 711.68 199.68 711.04 228.48 748.8 238.08 764.16 284.16 841.6 357.76 819.84 387.2 806.4 391.68 773.12 405.12 750.72 419.84 737.92 305.92 725.12 186.88 680.96 186.88 485.12 186.88 429.44 206.72 383.36 239.36 347.52 234.24 334.72 216.32 282.24 244.48 211.84 244.48 211.84 287.36 198.4 385.28 264.32 426.24 252.8 469.76 247.04 513.28 247.04 556.8 247.04 600.32 252.8 641.28 264.32 739.2 197.76 782.08 211.84 782.08 211.84 810.24 282.24 792.32 334.72 787.2 347.52 819.84 383.36 839.68 428.8 839.68 485.12 839.68 681.6 720 725.12 606.08 737.92 624.64 753.92 640.64 784.64 640.64 832.64 640.64 901.12 640 956.16 640 973.44 640 986.88 649.6 1002.88 675.2 997.76 877.44 929.92 1024 737.92 1024 512 1024 229.12 794.88 0 512 0 Z" fill="#1b1f23" fill-opacity="1" stroke="none"/>
</svg>
