<?xml version="1.0" encoding="UTF-8"?>
<svg width="274px" height="274px" viewBox="0 0 274 274" xmlns="http://www.w3.org/2000/svg" xmlns:xlink="http://www.w3.org/1999/xlink" version="1.1">
 <!-- Generated by Pixelmator Pro 1.6.3 -->
 <path id="Ellipse" d="M274 137 C274 61.337 212.663 0 137 0 61.337 0 0 61.337 0 137 0 212.663 61.337 274 137 274 212.663 274 274 212.663 274 137 Z" fill="#1ba94c" fill-opacity="1" stroke="none"/>
 <path id="Path" d="M201.242 199.836 L195.88 199.836 195.88 68.493 C195.88 66.451 194.262 64.833 192.219 64.833 L164.895 64.833 C162.853 64.833 161.235 66.451 161.235 68.493 L161.235 119.311 112.46 119.311 112.46 73.771 117.823 73.771 C119.951 73.771 121.654 72.068 121.654 69.94 121.654 68.834 121.229 67.897 120.463 67.131 L97.65 46.022 C96.203 44.66 93.905 44.66 92.457 46.022 L69.73 67.131 C68.198 68.579 68.113 70.962 69.56 72.494 70.24 73.26 71.262 73.686 72.369 73.686 L77.731 73.686 77.731 204.943 C77.731 206.985 79.349 208.603 81.392 208.603 L108.715 208.603 C110.758 208.603 112.376 206.985 112.376 204.943 L112.376 154.125 161.15 154.125 161.15 199.665 155.788 199.665 C153.66 199.665 151.957 201.368 151.957 203.496 151.957 204.602 152.383 205.539 153.149 206.305 L175.876 227.414 C177.323 228.776 179.621 228.776 181.068 227.414 L203.795 206.305 C205.328 204.857 205.413 202.474 203.966 200.942 203.285 200.26 202.264 199.836 201.242 199.836 Z" fill="#ffffff" fill-opacity="1" stroke="none"/>
</svg>
