<?xml version="1.0" encoding="UTF-8"?>
<svg width="274px" height="274px" viewBox="0 0 274 274" xmlns="http://www.w3.org/2000/svg" xmlns:xlink="http://www.w3.org/1999/xlink" version="1.1">
 <!-- Generated by Pixelmator Pro 1.6.3 -->
 <defs>
  <linearGradient id="linear-gradient" gradientUnits="userSpaceOnUse" x1="2.032" y1="137" x2="274" y2="137">
   <stop offset="0" stop-color="#1ba94c" stop-opacity="1"/>
   <stop offset="1" stop-color="#32c766" stop-opacity="1"/>
  </linearGradient>
 </defs>
 <path id="Ellipse" d="M274 137 C274 61.337 212.663 0 137 0 61.337 0 0 61.337 0 137 0 212.663 61.337 274 137 274 212.663 274 274 212.663 274 137 Z" fill-opacity="1" fill="url(#linear-gradient)" stroke="none"/>
 <path id="Path" d="M206.273 205.538 L200.505 205.538 200.505 64.269 C200.505 62.072 198.765 60.332 196.568 60.332 L167.179 60.332 C164.982 60.332 163.242 62.072 163.242 64.269 L163.242 118.927 110.781 118.927 110.781 69.945 116.549 69.945 C118.838 69.945 120.669 68.114 120.669 65.825 120.669 64.635 120.212 63.628 119.388 62.804 L94.851 40.099 C93.295 38.634 90.823 38.634 89.266 40.099 L64.821 62.804 C63.173 64.361 63.082 66.924 64.638 68.572 65.37 69.396 66.469 69.854 67.659 69.854 L73.427 69.854 73.427 211.031 C73.427 213.228 75.167 214.968 77.364 214.968 L106.753 214.968 C108.95 214.968 110.69 213.228 110.69 211.031 L110.69 156.373 163.151 156.373 163.151 205.355 157.383 205.355 C155.094 205.355 153.263 207.186 153.263 209.475 153.263 210.665 153.721 211.672 154.545 212.496 L178.99 235.201 C180.546 236.666 183.018 236.666 184.574 235.201 L209.019 212.496 C210.667 210.939 210.759 208.376 209.203 206.728 208.47 205.995 207.372 205.538 206.273 205.538 Z" fill="#ffffff" fill-opacity="1" stroke="none"/>
</svg>
