<svg height="512pt" viewBox="0 0 512 512" width="512pt" xmlns="http://www.w3.org/2000/svg" xmlns:xlink="http://www.w3.org/1999/xlink"><linearGradient id="a" gradientUnits="userSpaceOnUse" x1="0" x2="512" y1="256" y2="256"><stop offset="0" stop-color="#00f38d"/><stop offset="1" stop-color="#009eff"/></linearGradient><path d="m512 256c0 141.386719-114.613281 256-256 256s-256-114.613281-256-256 114.613281-256 256-256 256 114.613281 256 256zm0 0" fill="url(#a)"/><g fill="#fff"><path d="m297.484375 82.542969h-137.460937c-23.082032 0-41.859376 18.777343-41.859376 41.855469v263.199218c0 23.082032 18.777344 41.859375 41.859376 41.859375h191.953124c23.082032 0 41.859376-18.777343 41.859376-41.859375v-208.214844zm8.394531 50.96875 36.871094 37.0625h-25.015625c-6.539063 0-11.855469-5.320313-11.855469-11.855469zm46.097656 265.945312h-191.953124c-6.539063 0-11.859376-5.320312-11.859376-11.855469v-263.203124c0-6.535157 5.320313-11.855469 11.859376-11.855469h115.855468v46.175781c0 23.078125 18.773438 41.855469 41.855469 41.855469h46.101563v187.027343c0 6.535157-5.320313 11.855469-11.859376 11.855469zm0 0"/><path d="m174.121094 345.742188h164.5v30h-164.5zm0 0"/><path d="m234.550781 287.785156c17.644531 0 32 14.355469 32 32h30c0-20.96875-10.472656-39.523437-26.449219-50.75 4.40625-6.628906 6.976563-14.570312 6.976563-23.105468 0-23.082032-18.773437-41.859376-41.855469-41.859376-23.078125 0-41.855468 18.777344-41.855468 41.859376 0 8.257812 2.414062 15.957031 6.558593 22.449218-16.503906 11.152344-27.375 30.03125-27.375 51.40625h30c0-17.644531 14.355469-32 32-32zm.671875-53.714844c6.539063 0 11.855469 5.320313 11.855469 11.859376 0 6.535156-5.316406 11.855468-11.855469 11.855468-6.539062 0-11.855468-5.320312-11.855468-11.855468 0-6.539063 5.316406-11.859376 11.855468-11.859376zm0 0"/></g></svg>