<?xml version="1.0" encoding="UTF-8"?>
<svg width="439px" height="439px" viewBox="0 0 439 439" xmlns="http://www.w3.org/2000/svg" xmlns:xlink="http://www.w3.org/1999/xlink" version="1.1">
 <!-- Generated by Pixelmator Pro 1.6.3 -->
 <g id="github-sign">
  <g id="-Copy">
   <path id="Rectangle" d="M52.306 384.937 L388.626 384.937 388.626 71.262 52.306 71.262 Z" fill="#000000" fill-opacity="1" stroke="none"/>
   <path id="Rectangle-1" d="M52.306 384.937 L388.626 384.937 388.626 71.262 52.306 71.262 Z" fill="#000000" fill-opacity="1" stroke="none"/>
   <path id="Path" d="M406.216 42.046 C390.855 26.681 372.348 18.997 350.709 18.997 L88.831 18.997 C67.192 18.997 48.685 26.681 33.317 42.046 17.952 57.413 10.269 75.92 10.269 97.56 L10.269 359.435 C10.269 381.073 17.952 399.581 33.317 414.949 48.685 430.316 67.192 438 88.831 438 L350.706 438 C372.345 438 390.852 430.316 406.213 414.949 421.581 399.581 429.265 381.074 429.265 359.435 L429.265 97.56 C429.264 75.92 421.58 57.41 406.216 42.046 Z M330.793 180.216 C330.976 181.853 331.068 184.304 331.068 187.583 331.068 202.859 328.838 218.181 324.385 233.544 319.932 248.914 313.111 263.645 303.923 277.738 294.745 291.83 283.788 304.291 271.059 315.11 258.328 325.926 243.054 334.568 225.228 341.019 207.411 347.48 188.312 350.711 167.945 350.711 136.305 350.711 107.026 342.157 80.109 325.07 84.474 325.613 89.023 325.887 93.749 325.887 120.119 325.887 143.852 317.703 164.948 301.332 152.584 301.155 141.534 297.339 131.805 289.875 122.074 282.419 115.302 272.964 111.482 261.506 116.208 262.232 119.754 262.593 122.118 262.593 126.118 262.593 130.757 261.867 136.029 260.415 122.754 257.865 111.572 251.279 102.479 240.64 93.384 230 88.838 217.862 88.838 204.224 L88.838 203.678 C98.473 208.221 107.566 210.585 116.115 210.77 99.565 199.674 91.291 183.764 91.291 163.032 91.291 152.847 93.926 143.209 99.2 134.116 113.566 151.758 131.028 165.85 151.575 176.397 172.124 186.943 194.131 192.857 217.589 194.129 216.681 190.674 216.226 186.307 216.226 181.035 216.226 165.211 221.818 151.71 233.003 140.525 244.185 129.34 257.69 123.746 273.509 123.746 290.244 123.746 304.159 129.749 315.251 141.752 327.8 139.389 339.99 134.749 351.807 127.841 347.262 141.84 338.8 152.48 326.439 159.755 338.256 158.115 349.256 155.026 359.438 150.479 351.801 162.118 342.25 172.029 330.793 180.216 Z" fill="#000000" fill-opacity="1" stroke="none"/>
  </g>
  <g id="group">
   <g id="group-1">
    <path id="Path-1" d="M158.173 352.599 C155.124 353.167 153.792 354.598 154.174 356.88 154.554 359.163 156.267 359.926 159.312 359.163 162.361 358.403 163.692 357.068 163.309 355.166 162.931 353.074 161.218 352.216 158.173 352.599 Z" fill="#000000" fill-opacity="1" stroke="none"/>
    <path id="Path-2" d="M141.898 354.885 C138.852 354.885 137.33 355.926 137.33 358.024 137.33 360.498 138.949 361.542 142.183 361.162 145.229 361.162 146.753 360.115 146.753 358.024 146.753 355.553 145.134 354.502 141.898 354.885 Z" fill="#000000" fill-opacity="1" stroke="none"/>
    <path id="Path-3" d="M119.629 354.022 C118.869 356.117 120.107 357.541 123.34 358.306 126.195 359.443 128.004 358.874 128.764 356.592 129.336 354.501 128.098 352.982 125.053 352.024 122.197 351.265 120.39 351.922 119.629 354.022 Z" fill="#000000" fill-opacity="1" stroke="none"/>
    <path id="Path-4" d="M414.41 24.123 C398.326 8.042 378.964 0 356.309 0 L82.225 0 C59.577 0 40.208 8.042 24.123 24.123 8.042 40.207 -0 59.576 -0 82.225 L-0 356.313 C-0 378.963 8.042 398.33 24.123 414.411 40.207 430.495 59.577 438.537 82.225 438.537 L146.178 438.537 C150.362 438.537 153.505 438.393 155.598 438.113 157.69 437.825 159.782 436.587 161.877 434.396 163.973 432.209 165.017 429.02 165.017 424.834 165.017 424.266 164.967 417.788 164.873 405.417 164.776 393.042 164.729 383.241 164.729 376.007 L158.162 377.15 C153.975 377.91 148.693 378.245 142.316 378.149 135.942 378.053 129.326 377.389 122.475 376.151 115.62 374.912 109.246 372.058 103.345 367.589 97.447 363.112 93.26 357.261 90.785 350.03 L87.929 343.459 C86.026 339.086 83.03 334.23 78.937 328.905 74.844 323.573 70.705 319.956 66.518 318.053 L64.519 316.625 C63.188 315.674 61.951 314.527 60.808 313.196 59.667 311.861 58.811 310.527 58.24 309.199 57.669 307.864 58.143 306.769 59.667 305.91 61.191 305.055 63.948 304.631 67.947 304.631 L73.655 305.486 C77.463 306.246 82.171 308.528 87.789 312.337 93.403 316.143 98.018 321.091 101.635 327.18 106.015 334.986 111.292 340.93 117.481 345.023 123.665 349.12 129.9 351.166 136.18 351.166 142.46 351.166 147.884 350.69 152.454 349.742 157.019 348.788 161.302 347.357 165.301 345.454 167.014 332.703 171.678 322.895 179.289 316.044 168.441 314.901 158.687 313.19 150.024 310.904 141.366 308.618 132.419 304.909 123.189 299.768 113.955 294.628 106.295 288.256 100.204 280.638 94.114 273.02 89.116 263.028 85.217 250.66 81.316 238.285 79.365 224.008 79.365 207.831 79.365 184.802 86.886 165.194 101.922 149.017 94.878 131.697 95.543 112.285 103.919 90.775 109.439 89.061 117.625 90.347 128.473 94.63 139.323 98.916 147.267 102.581 152.313 105.622 157.359 108.664 161.402 111.236 164.448 113.332 182.153 108.383 200.424 105.909 219.266 105.909 238.107 105.909 256.381 108.383 274.087 113.332 L284.936 106.48 C292.362 101.91 301.116 97.723 311.205 93.918 321.293 90.112 329 89.064 334.332 90.778 342.894 112.288 343.66 131.7 336.611 149.019 351.647 165.198 359.17 184.805 359.17 207.834 359.17 224.014 357.219 238.339 353.318 250.803 349.42 263.27 344.379 273.266 338.188 280.784 332.004 288.303 324.294 294.627 315.064 299.77 305.832 304.907 296.886 308.623 288.224 310.902 279.563 313.188 269.81 314.906 258.961 316.049 268.852 324.611 273.8 338.121 273.8 356.587 L273.8 424.825 C273.8 428.062 274.272 430.677 275.224 432.676 276.182 434.674 277.702 436.05 279.795 436.817 281.897 437.577 283.744 438.052 285.366 438.241 286.988 438.432 289.315 438.528 292.361 438.528 L356.314 438.528 C378.962 438.528 398.332 430.486 414.409 414.402 430.493 398.318 438.535 378.948 438.535 356.3 L438.535 82.225 C438.533 59.576 430.491 40.204 414.41 24.123 Z" fill="#ffffff" fill-opacity="1" stroke="none"/>
    <path id="Path-5" d="M86.793 319.195 C85.462 320.143 85.652 321.666 87.365 323.76 89.271 325.662 90.792 325.949 91.935 324.615 93.266 323.667 93.076 322.144 91.36 320.046 89.458 318.336 87.936 318.049 86.793 319.195 Z" fill="#000000" fill-opacity="1" stroke="none"/>
    <path id="Path-6" d="M77.374 312.057 C76.804 313.392 77.47 314.535 79.373 315.483 80.894 316.438 82.135 316.25 83.084 314.915 83.654 313.58 82.988 312.437 81.085 311.482 79.182 310.91 77.945 311.102 77.374 312.057 Z" fill="#000000" fill-opacity="1" stroke="none"/>
    <path id="Path-7" d="M95.646 330.331 C93.931 331.279 93.931 332.997 95.646 335.468 97.359 337.946 98.974 338.61 100.499 337.466 102.213 336.132 102.213 334.324 100.499 332.039 98.978 329.571 97.359 328.993 95.646 330.331 Z" fill="#000000" fill-opacity="1" stroke="none"/>
    <path id="Path-8" d="M105.641 343.174 C103.927 344.7 104.305 346.501 106.783 348.602 109.064 350.881 110.968 351.168 112.491 349.451 114.015 347.932 113.634 346.125 111.349 344.031 109.068 341.751 107.164 341.463 105.641 343.174 Z" fill="#000000" fill-opacity="1" stroke="none"/>
   </g>
  </g>
 </g>
</svg>
