<?xml version="1.0" encoding="UTF-8"?>
<svg width="439px" height="439px" viewBox="0 0 439 439" xmlns="http://www.w3.org/2000/svg" xmlns:xlink="http://www.w3.org/1999/xlink" version="1.1">
 <!-- Generated by Pixelmator Pro 1.6.3 -->
 <g id="group">
  <path id="Rectangle" d="M44 383 L396 383 396 54.701 44 54.701 Z" fill="#000000" fill-opacity="1" stroke="none"/>
  <path id="Rectangle-1" d="M44 383 L396 383 396 54.701 44 54.701 Z" fill="#ffffff" fill-opacity="1" stroke="none"/>
  <path id="Path" d="M414.41 24.123 C398.333 8.042 378.963 0 356.315 0 L82.228 0 C59.58 0 40.21 8.042 24.126 24.123 8.045 40.207 0.003 59.576 0.003 82.225 L0.003 356.309 C0.003 378.956 8.045 398.327 24.126 414.411 40.21 430.495 59.58 438.537 82.228 438.537 L356.312 438.537 C378.96 438.537 398.33 430.495 414.407 414.411 430.491 398.327 438.533 378.957 438.533 356.309 L438.533 82.225 C438.532 59.576 430.49 40.204 414.41 24.123 Z M335.471 168.735 C335.662 170.448 335.759 173.013 335.759 176.445 335.759 192.434 333.425 208.47 328.764 224.549 324.103 240.636 316.964 256.053 307.348 270.803 297.742 285.552 286.274 298.594 272.952 309.918 259.627 321.238 243.641 330.283 224.984 337.035 206.336 343.797 186.347 347.178 165.031 347.178 131.915 347.178 101.271 338.226 73.1 320.342 77.668 320.91 82.429 321.197 87.375 321.197 114.975 321.197 139.814 312.632 161.894 295.497 148.953 295.312 137.388 291.318 127.206 283.506 117.021 275.703 109.933 265.807 105.935 253.815 110.882 254.575 114.593 254.952 117.067 254.952 121.254 254.952 126.109 254.192 131.627 252.673 117.733 250.004 106.029 243.111 96.512 231.976 86.993 220.84 82.235 208.136 82.235 193.862 L82.235 193.291 C92.32 198.046 101.837 200.52 110.784 200.713 93.463 189.1 84.803 172.448 84.803 150.75 84.803 140.09 87.561 130.003 93.081 120.486 108.116 138.95 126.392 153.699 147.897 164.738 169.404 175.776 192.437 181.965 216.989 183.296 216.039 179.68 215.562 175.11 215.562 169.592 215.562 153.03 221.415 138.9 233.122 127.193 244.825 115.487 258.959 109.632 275.516 109.632 293.031 109.632 307.595 115.915 319.204 128.478 332.338 126.004 345.096 121.148 357.464 113.918 352.707 128.57 343.851 139.706 330.914 147.32 343.282 145.604 354.794 142.37 365.451 137.612 357.458 149.793 347.462 160.166 335.471 168.735 Z" fill="#ffffff" fill-opacity="1" stroke="none"/>
 </g>
 <g id="-Copy">
  <path id="Path-1" d="M261.484 45.543 L124.023 45.543 C100.941 45.543 82.164 64.32 82.164 87.398 L82.164 350.598 C82.164 373.68 100.941 392.457 124.023 392.457 L315.977 392.457 C339.059 392.457 357.836 373.68 357.836 350.598 L357.836 142.383 Z M269.879 96.512 L306.75 133.574 281.734 133.574 C275.195 133.574 269.879 128.254 269.879 121.719 Z M315.977 362.457 L124.023 362.457 C117.484 362.457 112.164 357.137 112.164 350.602 L112.164 87.398 C112.164 80.863 117.484 75.543 124.023 75.543 L239.879 75.543 239.879 121.719 C239.879 144.797 258.652 163.574 281.734 163.574 L327.836 163.574 327.836 350.602 C327.836 357.137 322.516 362.457 315.977 362.457 Z M315.977 362.457" fill="#000000" fill-opacity="1" stroke="none"/>
  <path id="Path-2" d="M138.121 308.742 L302.621 308.742 302.621 338.742 138.121 338.742 Z M138.121 308.742" fill="#000000" fill-opacity="1" stroke="none"/>
  <path id="Path-3" d="M198.551 250.785 C216.195 250.785 230.551 265.141 230.551 282.785 L260.551 282.785 C260.551 261.816 250.078 243.262 234.102 232.035 238.508 225.406 241.078 217.465 241.078 208.93 241.078 185.848 222.305 167.07 199.223 167.07 176.145 167.07 157.367 185.848 157.367 208.93 157.367 217.188 159.781 224.887 163.926 231.379 147.422 242.531 136.551 261.41 136.551 282.785 L166.551 282.785 C166.551 265.141 180.906 250.785 198.551 250.785 Z M199.223 197.07 C205.762 197.07 211.078 202.391 211.078 208.93 211.078 215.465 205.762 220.785 199.223 220.785 192.684 220.785 187.367 215.465 187.367 208.93 187.367 202.391 192.684 197.07 199.223 197.07 Z M199.223 197.07" fill="#000000" fill-opacity="1" stroke="none"/>
 </g>
</svg>
