<?xml version="1.0" encoding="UTF-8"?>
<svg width="439px" height="439px" viewBox="0 0 439 439" xmlns="http://www.w3.org/2000/svg" xmlns:xlink="http://www.w3.org/1999/xlink" version="1.1">
 <!-- Generated by Pixelmator Pro 1.6.3 -->
 <g id="group">
  <path id="Rectangle" d="M44 383 L396 383 396 54.701 44 54.701 Z" fill="#000000" fill-opacity="1" stroke="none"/>
  <path id="Rectangle-1" d="M44 383 L396 383 396 54.701 44 54.701 Z" fill="#ffffff" fill-opacity="1" stroke="none"/>
  <path id="Path" d="M414.41 24.123 C398.333 8.042 378.963 0 356.315 0 L82.228 0 C59.58 0 40.21 8.042 24.126 24.123 8.045 40.207 0.003 59.576 0.003 82.225 L0.003 356.309 C0.003 378.956 8.045 398.327 24.126 414.411 40.21 430.495 59.58 438.537 82.228 438.537 L356.312 438.537 C378.96 438.537 398.33 430.495 414.407 414.411 430.491 398.327 438.533 378.957 438.533 356.309 L438.533 82.225 C438.532 59.576 430.49 40.204 414.41 24.123 Z M335.471 168.735 C335.662 170.448 335.759 173.013 335.759 176.445 335.759 192.434 333.425 208.47 328.764 224.549 324.103 240.636 316.964 256.053 307.348 270.803 297.742 285.552 286.274 298.594 272.952 309.918 259.627 321.238 243.641 330.283 224.984 337.035 206.336 343.797 186.347 347.178 165.031 347.178 131.915 347.178 101.271 338.226 73.1 320.342 77.668 320.91 82.429 321.197 87.375 321.197 114.975 321.197 139.814 312.632 161.894 295.497 148.953 295.312 137.388 291.318 127.206 283.506 117.021 275.703 109.933 265.807 105.935 253.815 110.882 254.575 114.593 254.952 117.067 254.952 121.254 254.952 126.109 254.192 131.627 252.673 117.733 250.004 106.029 243.111 96.512 231.976 86.993 220.84 82.235 208.136 82.235 193.862 L82.235 193.291 C92.32 198.046 101.837 200.52 110.784 200.713 93.463 189.1 84.803 172.448 84.803 150.75 84.803 140.09 87.561 130.003 93.081 120.486 108.116 138.95 126.392 153.699 147.897 164.738 169.404 175.776 192.437 181.965 216.989 183.296 216.039 179.68 215.562 175.11 215.562 169.592 215.562 153.03 221.415 138.9 233.122 127.193 244.825 115.487 258.959 109.632 275.516 109.632 293.031 109.632 307.595 115.915 319.204 128.478 332.338 126.004 345.096 121.148 357.464 113.918 352.707 128.57 343.851 139.706 330.914 147.32 343.282 145.604 354.794 142.37 365.451 137.612 357.458 149.793 347.462 160.166 335.471 168.735 Z" fill="#ffffff" fill-opacity="1" stroke="none"/>
 </g>
 <g id="linkedin-letters">
  <g id="group-1">
   <g id="group-2">
    <path id="Path-1" d="M73.699 168.876 L137.952 168.876 137.952 361.828 73.699 361.828 Z" fill="#000000" fill-opacity="1" stroke="none"/>
    <path id="Path-2" d="M348.819 186.501 C335.322 171.767 317.471 164.399 295.276 164.399 287.098 164.399 279.665 165.405 272.979 167.418 266.295 169.43 260.65 172.253 256.04 175.888 251.433 179.523 247.764 182.897 245.041 186.011 242.45 188.969 239.918 192.414 237.446 196.312 L237.446 168.874 173.385 168.874 173.581 178.222 C173.713 184.454 173.778 203.664 173.778 235.854 173.778 268.046 173.648 310.037 173.388 361.829 L237.446 361.829 237.446 254.154 C237.446 247.536 238.156 242.28 239.587 238.382 242.315 231.759 246.432 226.214 251.952 221.738 257.471 217.256 264.316 215.017 272.496 215.017 283.656 215.017 291.869 218.878 297.127 226.601 302.383 234.324 305.011 245.001 305.011 258.631 L305.011 361.823 369.07 361.823 369.07 251.237 C369.065 222.807 362.32 201.229 348.819 186.501 Z" fill="#000000" fill-opacity="1" stroke="none"/>
    <path id="Path-3" d="M106.215 76 C95.442 76 86.714 79.15 80.027 85.444 73.341 91.739 70 99.687 70 109.295 70 118.768 73.245 126.688 79.735 133.047 86.223 139.406 94.792 142.588 105.435 142.588 L105.825 142.588 C116.729 142.588 125.525 139.409 132.209 133.047 138.893 126.688 142.17 118.771 142.041 109.295 141.911 99.688 138.599 91.739 132.111 85.444 125.623 79.147 116.988 76 106.215 76 Z" fill="#000000" fill-opacity="1" stroke="none"/>
   </g>
  </g>
  <g id="group-3"/>
  <g id="group-4"/>
  <g id="group-5"/>
  <g id="group-6"/>
  <g id="group-7"/>
  <g id="group-8"/>
  <g id="group-9"/>
  <g id="group-10"/>
  <g id="group-11"/>
  <g id="group-12"/>
  <g id="group-13"/>
  <g id="group-14"/>
  <g id="group-15"/>
  <g id="group-16"/>
  <g id="group-17"/>
 </g>
</svg>
